# Blender 4.5.1 LTS
# www.blender.org
mtllib canopy.mtl
o canopy
v 0.203766 1.574205 1.423279
v 0.297096 1.643750 1.423279
v 0.207449 1.444513 0.763668
v 0.261225 1.500000 0.750000
v 0.000000 1.430487 0.763668
v 0.000000 1.500000 0.750000
v 0.000000 1.574205 1.423279
v 0.000000 1.643750 1.423279
v 0.475000 0.543078 0.250000
v 0.380782 0.540784 0.256250
v 0.391219 0.619013 1.087500
v 0.547015 0.618487 1.087500
v 0.000000 0.851626 -0.067637
v 0.334375 0.851626 -0.067637
v 0.289553 0.813652 -0.029711
v 0.000000 0.813652 -0.029711
v -0.203766 1.574205 1.423279
v -0.297096 1.643750 1.423279
v -0.207449 1.444513 0.763668
v -0.261225 1.500000 0.750000
v -0.475000 0.543078 0.250000
v -0.380782 0.540784 0.256250
v -0.391219 0.619013 1.087500
v -0.547015 0.618487 1.087500
v -0.334375 0.851626 -0.067637
v -0.289553 0.813652 -0.029711
vn -0.1501 -0.4404 0.8852
vn 0.5012 0.6286 0.5946
vn -0.5661 -0.7591 0.3214
vn 0.5409 0.7637 -0.3523
vn -0.0000 -0.9047 0.4260
vn -0.0000 0.9046 -0.4263
vn -0.0000 -0.6311 0.7757
vn -0.0000 0.7774 0.6290
vn 0.7035 -0.6216 -0.3445
vn -0.5352 -0.8157 -0.2197
vn -0.4945 -0.6967 0.5197
vn 0.7383 -0.5064 0.4454
vn -0.0000 0.0578 -0.9983
vn 0.4886 0.0895 -0.8679
vn -0.2621 -0.8822 -0.3913
vn -0.0000 -0.9982 -0.0595
vn 0.1501 -0.4404 0.8852
vn -0.5012 0.6286 0.5946
vn 0.5661 -0.7591 0.3214
vn -0.5409 0.7637 -0.3523
vn -0.7035 -0.6216 -0.3445
vn 0.5352 -0.8157 -0.2197
vn 0.4945 -0.6967 0.5197
vn -0.7383 -0.5064 0.4454
vn -0.4886 0.0895 -0.8679
vn 0.2621 -0.8822 -0.3913
vt 0.398422 0.506267
vt 0.414023 0.475946
vt 0.444853 0.521230
vt 0.421283 0.555682
vt 0.459152 0.556279
vt 0.469407 0.555711
vt 0.469231 0.574538
vt 0.459152 0.574619
vt 0.500459 0.509106
vt 0.487536 0.509106
vt 0.487536 0.475946
vt 0.502233 0.475946
vt 0.509381 0.537080
vt 0.504078 0.534863
vt 0.518351 0.531417
vt 0.519171 0.534716
vt 0.513979 0.503676
vt 0.518400 0.505186
vt 0.511189 0.531417
vt 0.504077 0.528446
vt 0.467610 0.553419
vt 0.487536 0.505407
vt 0.487536 0.555711
vt 0.511556 0.587214
vt 0.504078 0.589046
vt 0.472127 0.475946
vt 0.444853 0.518965
vt 0.504077 0.478398
vt 0.505095 0.475946
vt 0.520372 0.482287
vt 0.517307 0.483889
vt 0.398422 0.558013
vt 0.448875 0.555711
vt 0.459152 0.555985
vt 0.459152 0.592199
vt 0.444853 0.592773
vt 0.504078 0.559367
vt 0.487536 0.559367
s 1
usemtl m_a14d1679-6424-38aa-12aa-86a258832ba8
f 4/1/4 2/2/2 12/3/12 9/4/9
f 5/5/5 3/6/3 1/7/1 7/8/7
f 4/9/4 6/10/6 8/11/8 2/12/2
f 1/13/1 2/14/2 8/15/8 7/16/7
f 10/17/10 9/18/9 12/19/12 11/20/11
f 10/21/10 3/22/3 15/23/15
f 2/14/2 1/13/1 11/24/11 12/25/12
f 1/26/1 3/22/3 10/21/10 11/27/11
f 16/28/16 13/29/13 14/30/14 15/31/15
f 15/31/15 14/30/14 9/18/9 10/17/10
f 4/1/4 9/4/9 14/32/14
f 3/33/3 5/34/5 16/35/16 15/36/15
f 6/10/6 4/9/4 14/37/14 13/38/13
f 20/1/20 21/4/21 24/3/24 18/2/18
f 5/5/5 7/8/7 17/7/17 19/6/19
f 20/9/20 18/12/18 8/11/8 6/10/6
f 17/13/17 7/16/7 8/15/8 18/14/18
f 22/17/22 23/20/23 24/19/24 21/18/21
f 22/21/22 26/23/26 19/22/19
f 18/14/18 24/25/24 23/24/23 17/13/17
f 17/26/17 23/27/23 22/21/22 19/22/19
f 16/28/16 26/31/26 25/30/25 13/29/13
f 26/31/26 22/17/22 21/18/21 25/30/25
f 20/1/20 25/32/25 21/4/21
f 19/33/19 26/36/26 16/35/16 5/34/5
f 6/10/6 13/38/13 25/37/25 20/9/20
