# Made in Blockbench 5.0.3
mtllib tree.mtl

o cuboid
v 0.15625 0.4375 0.15625
v 0.15625 0.4375 -0.15625
v 0.15625 0 0.15625
v 0.15625 0 -0.15625
v -0.15625 0.4375 0.15625
v -0.15625 0.4375 -0.15625
v -0.15625 0 0.15625
v -0.15625 0 -0.15625
vt 0.15625 1
vt 0 1
vt 0 0.78125
vt 0.15625 0.78125
vt 0.34375 0.78125
vt 0.34375 1
vt 0.1875 1
vt 0.1875 0.78125
vt 0.375 0.84375
vt 0.53125 0.84375
vt 0.53125 1
vt 0.375 1
vt 0.53125 0.65625
vt 0.53125 0.8125
vt 0.375 0.8125
vt 0.375 0.65625
vt 0.15625 0.53125
vt 0.15625 0.75
vt 0 0.75
vt 0 0.53125
vt 0.34375 0.75
vt 0.1875 0.75
vt 0.1875 0.53125
vt 0.34375 0.53125
vn 1 0 0
vn -1 0 0
vn 0 1 0
vn 0 -1 0
vn 0 0 1
vn 0 0 -1
usemtl m_6f866276-827d-eef2-e5a6-4d20e43cd622
f 2/1/1 1/2/1 3/3/1 4/4/1
f 7/5/2 5/6/2 6/7/2 8/8/2
f 5/9/3 1/10/3 2/11/3 6/12/3
f 4/13/4 3/14/4 7/15/4 8/16/4
f 3/17/5 1/18/5 5/19/5 7/20/5
f 6/21/6 2/22/6 4/23/6 8/24/6
o cuboid
v 0.25 0.6875 0.25
v 0.25 0.6875 -0.25
v 0.5 0.3125 0.5
v 0.5 0.3125 -0.5
v -0.25 0.6875 0.25
v -0.25 0.6875 -0.25
v -0.5 0.3125 0.5
v -0.5 0.3125 -0.5
v 0.1875 0.375 0.1875
v -0.1875 0.375 0.1875
v 0.1875 0.375 -0.1875
v -0.1875 0.375 -0.1875
vt 0.033203125 0.98828125
vt 0.017578125 0.98828125
vt 0.009765625 0.9741970703125
vt 0.041015625 0.9741970703125
vt 0.138671875 0.9741970703125
vt 0.130859375 0.98828125
vt 0.115234375 0.98828125
vt 0.107421875 0.9741970703125
vt 0.154296875 0.97265625
vt 0.169921875 0.97265625
vt 0.169921875 0.98828125
vt 0.154296875 0.98828125
vt 0.1015625 0.9116970703125
vt 0.09375 0.92578125
vt 0.078125 0.92578125
vt 0.0703125 0.9116970703125
vt 0.158203125 0.951171875
vt 0.142578125 0.951171875
vt 0.134765625 0.9370876953125
vt 0.166015625 0.9370876953125
vt 0.109375 0.951171875
vt 0.109375 0.962890625
vt 0.09765625 0.962890625
vt 0.09765625 0.951171875
vt 0.07421875 0.9726562499999999
vt 0.0625 0.9726562499999999
vt 0.052734375 0.9626972656249999
vt 0.083984375 0.9626972656249999
vt 0.021484375 0.953125
vt 0.009765625 0.953125
vt 0 0.943166015625
vt 0.03125 0.943166015625
vt 0.13671875 0.927734375
vt 0.125 0.927734375
vt 0.115234375 0.9177753906249999
vt 0.146484375 0.9177753906249999
vt 0.0703125 0.9433593749999999
vt 0.05859375 0.9433593749999999
vt 0.048828125 0.9334003906249999
vt 0.080078125 0.9334003906249999
vn 0.8320502943378437 0.5547001962252291 0
vn -0.8320502943378437 0.5547001962252291 0
vn 0 1 0
vn 0 0.5547001962252291 0.8320502943378437
vn 0 0.5547001962252291 -0.8320502943378437
vn 0 -1 0
vn -0.19611613513818407 -0.9805806756909203 0
vn 0 -0.9805806756909203 -0.19611613513818407
vn 0.19611613513818407 -0.9805806756909203 0
vn 0 -0.9805806756909203 0.19611613513818407
usemtl m_c1c8aeb5-8ed3-3536-d8f9-e9ba8e61f4d3
f 10/25/7 9/26/7 11/27/7 12/28/7
f 15/29/8 13/30/8 14/31/8 16/32/8
f 13/33/9 9/34/9 10/35/9 14/36/9
f 11/37/10 9/38/10 13/39/10 15/40/10
f 14/41/11 10/42/11 12/43/11 16/44/11
f 19/45/12 17/46/12 18/47/12 20/48/12
f 17/49/13 19/50/13 12/51/13 11/52/13
f 18/53/14 17/54/14 11/55/14 15/56/14
f 20/57/15 18/58/15 15/59/15 16/60/15
f 19/61/16 20/62/16 16/63/16 12/64/16
o cuboid
v 0.1875 0.9375 0.1875
v 0.1875 0.9375 -0.1875
v 0.4375 0.625 0.4375
v 0.4375 0.625 -0.4375
v -0.1875 0.9375 0.1875
v -0.1875 0.9375 -0.1875
v -0.4375 0.625 0.4375
v -0.4375 0.625 -0.4375
v 0.25 0.6875 0.25
v -0.25 0.6875 0.25
v 0.25 0.6875 -0.25
v -0.25 0.6875 -0.25
vt 0.095703125 0.990234375
vt 0.083984375 0.990234375
vt 0.076171875 0.977728125
vt 0.103515625 0.977728125
vt 0.119140625 0.9054625
vt 0.111328125 0.91796875
vt 0.099609375 0.91796875
vt 0.091796875 0.9054625
vt 0.017578125 0.947265625
vt 0.029296875 0.947265625
vt 0.029296875 0.958984375
vt 0.017578125 0.958984375
vt 0.146484375 0.950384375
vt 0.138671875 0.962890625
vt 0.126953125 0.962890625
vt 0.119140625 0.950384375
vt 0.072265625 0.96484375
vt 0.060546875 0.96484375
vt 0.052734375 0.9523375
vt 0.080078125 0.9523375
vt 0.0703125 0.900390625
vt 0.0703125 0.916015625
vt 0.0546875 0.916015625
vt 0.0546875 0.900390625
vt 0.091796875 0.8906250000000001
vt 0.076171875 0.8906250000000001
vt 0.0703125 0.8844486328125001
vt 0.09765625 0.8844486328125001
vt 0.087890625 0.9375
vt 0.072265625 0.9375
vt 0.06640625 0.9313236328125
vt 0.09375 0.9313236328125
vt 0.158203125 0.9003906250000001
vt 0.142578125 0.9003906250000001
vt 0.13671875 0.8942142578125001
vt 0.1640625 0.8942142578125001
vt 0.03515625 0.9218750000000001
vt 0.01953125 0.9218750000000001
vt 0.013671875 0.9156986328125001
vt 0.041015625 0.9156986328125001
vn 0.7808688094430304 0.6246950475544243 0
vn -0.7808688094430304 0.6246950475544243 0
vn 0 1 0
vn 0 0.6246950475544243 0.7808688094430304
vn 0 0.6246950475544243 -0.7808688094430304
vn 0 -1 0
vn -0.316227766016838 -0.948683298050514 0
vn 0 -0.948683298050514 -0.316227766016838
vn 0.316227766016838 -0.948683298050514 0
vn 0 -0.948683298050514 0.316227766016838
usemtl m_c1c8aeb5-8ed3-3536-d8f9-e9ba8e61f4d3
f 22/65/17 21/66/17 23/67/17 24/68/17
f 27/69/18 25/70/18 26/71/18 28/72/18
f 25/73/19 21/74/19 22/75/19 26/76/19
f 23/77/20 21/78/20 25/79/20 27/80/20
f 26/81/21 22/82/21 24/83/21 28/84/21
f 31/85/22 29/86/22 30/87/22 32/88/22
f 29/89/23 31/90/23 24/91/23 23/92/23
f 30/93/24 29/94/24 23/95/24 27/96/24
f 32/97/25 30/98/25 27/99/25 28/100/25
f 31/101/26 32/102/26 28/103/26 24/104/26
o cuboid
v 0.34375 0.875 0.34375
v 0.34375 0.875 -0.34375
v 0 1.6875 0
v -0.34375 0.875 0.34375
v -0.34375 0.875 -0.34375
v 0.1875 0.9375 0.1875
v -0.1875 0.9375 0.1875
v 0.1875 0.9375 -0.1875
v -0.1875 0.9375 -0.1875
vt 0.1083984375 0.978515625
vt 0.09765625 0.95094609375
vt 0.119140625 0.95094609375
vt 0.09375 0.9021179687499998
vt 0.0830078125 0.9296874999999999
vt 0.072265625 0.9021179687499998
vt 0.083984375 0.93026328125
vt 0.0947265625 0.90269375
vt 0.10546875 0.93026328125
vt 0.0712890625 0.9707031249999999
vt 0.060546875 0.9431335937499998
vt 0.08203125 0.9431335937499998
vt 0.021484375 0.978515625
vt 0.021484375 0.990234375
vt 0.009765625 0.990234375
vt 0.009765625 0.978515625
vt 0.0244140625 0.94921875
vt 0.0126953125 0.94921875
vt 0.0078125 0.943959765625
vt 0.029296875 0.943959765625
vt 0.0458984375 0.94921875
vt 0.0341796875 0.94921875
vt 0.029296875 0.9439597656250001
vt 0.05078125 0.9439597656250001
vt 0.0458984375 0.955078125
vt 0.0341796875 0.955078125
vt 0.029296875 0.949819140625
vt 0.05078125 0.949819140625
vt 0.0244140625 0.955078125
vt 0.0126953125 0.955078125
vt 0.0078125 0.949819140625
vt 0.029296875 0.949819140625
vn 0.9209672510685588 0.389639990836698 0
vn -0.9209672510685588 0.389639990836698 0
vn 0 0.389639990836698 0.9209672510685588
vn 0 0.389639990836698 -0.9209672510685588
vn 0 -1 0
vn -0.3713906763541038 -0.9284766908852594 0
vn 0 -0.9284766908852594 -0.3713906763541038
vn 0.3713906763541038 -0.9284766908852594 0
vn 0 -0.9284766908852594 0.3713906763541038
usemtl m_c1c8aeb5-8ed3-3536-d8f9-e9ba8e61f4d3
f 35/105/27 33/106/27 34/107/27
f 36/108/28 35/109/28 37/110/28
f 33/111/29 35/112/29 36/113/29
f 35/114/30 34/115/30 37/116/30
f 40/117/31 38/118/31 39/119/31 41/120/31
f 38/121/32 40/122/32 34/123/32 33/124/32
f 39/125/33 38/126/33 33/127/33 36/128/33
f 41/129/34 39/130/34 36/131/34 37/132/34
f 40/133/35 41/134/35 37/135/35 34/136/35